<?xml version="1.0" encoding="iso-8859-1"?>
<!-- Generator: Adobe Illustrator 24.0.0, SVG Export Plug-In . SVG Version: 6.00 Build 0)  -->
<svg version="1.1" id="Layer_1" xmlns="http://www.w3.org/2000/svg" xmlns:xlink="http://www.w3.org/1999/xlink" x="0px" y="0px"
	 viewBox="0 0 24 24" style="enable-background:new 0 0 24 24;" xml:space="preserve">
<path d="M12,11L12,11c-1.105,0-2-0.895-2-2V5c0-1.105,0.895-2,2-2l0,0c1.105,0,2,0.895,2,2v4C14,10.105,13.105,11,12,11z"/>
<path d="M22.36,3.73c-1.13-1.72-3.55-2.25-5.41-1.17L16,3.1V9c0,2.21-1.79,4-4,4s-4-1.79-4-4V3.11L7.05,2.56
	C5.2,1.48,2.77,2.01,1.64,3.73c-0.59,0.91-0.78,2-0.53,3.06c0.25,1.04,0.93,1.95,1.91,2.52l0.05,0.02c3.03,1.74,4.91,4.99,4.91,8.48
	c0,1.05,0.37,2.05,1.06,2.83c0.73,0.82,1.7,1.3,2.75,1.35C11.86,22,11.93,22,12,22c1.04,0,2.01-0.39,2.77-1.1
	c0.8-0.76,1.25-1.82,1.25-2.92v-0.17c0-3.49,1.89-6.74,4.86-8.45l0.15-0.08c0.93-0.54,1.61-1.45,1.86-2.49
	C23.14,5.73,22.95,4.64,22.36,3.73z"/>
</svg>